<svg xmlns="http://www.w3.org/2000/svg" viewBox="0 0 348.9 481.79"><defs><style>.cls-1{fill:#fc5df0;}</style></defs><g id="test2" data-name="Layer 2"><g id="test3" data-name="Layer 3"><path id="Icon_material-location-on" data-name="Icon material-location-on" class="cls-1" d="M174.45,0A174.33,174.33,0,0,0,0,174.21v.24C0,275,103.07,412.4,150.76,470.58a30.63,30.63,0,0,0,47.38,0C245.83,412.4,348.9,275,348.9,174.45A174.34,174.34,0,0,0,174.69,0Zm0,236.75c-47.3,0-82.28-52.7-49.45-102.58a32.3,32.3,0,0,1,9.17-9.17c49.88-32.83,102.58,2.15,102.58,49.45h0A62.32,62.32,0,0,1,174.45,236.75Z"/></g></g></svg>