<svg xmlns="http://www.w3.org/2000/svg" viewBox="0 0 1202.8 717">
  <defs>
    <style>
      .cls-1{fill:#f6f}
    </style>
  </defs>
  <g id="Layer_2" data-name="Layer 2">
    <g id="Layer_3" data-name="Layer 3">
      <path class="cls-1" d="M1171.2 671.7a128.6 128.6 0 00-33-10.6 356.2 356.2 0 00-36-4.4c-5.5-.4-11-.8-16.4-1.4l-2.5-.3c0-2-.4-5-.4-5.8l-1-132.4-.5-70.3a1265.6 1265.6 0 0056-131.1c9-24.8 16.7-51.4 16.6-78 0-15.2-3.2-31.2-12.3-43.8A69.4 69.4 0 001111 169c-25-9.1-50 11.8-63.8 30.4-8.2 11-13 23-17.6 35.8a64 64 0 01-4.7 10.4 67.2 67.2 0 01-4 6.3l-.6.7-1.6 1.7-.5-1-.5-1.5a72.5 72.5 0 01-2.7-13.5c-1.3-12.2-.2-24.4-1.4-36.6a137.2 137.2 0 00-5.9-28.3 151.2 151.2 0 00-28.4-51.7c-11-13-25.9-24.8-42.9-28.3a56.9 56.9 0 00-50 15.1c-19.6 17.5-31.8 44-39.5 68.6-7.5 24.3-10 50.2-8.8 75.5 2.4 48.7 17.4 96 37.4 140a526.4 526.4 0 0043.9 78.8l1.3 1.9-1 128.2-.3 32.7-.1 15-.2 5.6-2.7.4c-19.2 1.8-38.6 2.6-57.5 6.8a121.4 121.4 0 00-29.4 10.3c-9.5 4.9-17.4 11.7-18.4 22.9-.3 3.6 3 8 6.7 8.8 21.8 4 43.7 3 65.6 1.1l67-6c9.8-1 24.2.5 27.6-11.3 1.4-4.6 1-10 1.2-14.8l.8-17.8q1.3-33.3 1.3-66.6 0-30.6-1.2-61l5.5 2a93.3 93.3 0 0022.7 4.3 23.8 23.8 0 0011.3-1.7l2.4-1.1q-2.2 58-.2 116.1c.4 11.3.9 22.5 1.6 33.8.2 4.7.7 9.4 4.2 12.9 4.2 4.2 10.7 4 16.2 4.4l66.3 6c24.8 2.3 49.5 4.1 74.2-.4 3.6-.6 7-5 6.7-8.7-1-11.9-9.8-18.7-19.8-23.6zm-132-60.8h25.2V625h-25l-.2-14.2zm25-33.8v17h-25.1q-.1-40.1 1.8-80.1a222.5 222.5 0 0015.3-21.9q3.8-6 7.3-12l.7 97zM1020 256.7a1.3 1.3 0 000-.2v.2zM948.5 681l-18.8 1.7-36.6 3.4c-18.2 1.6-36.7 3.5-55 2.2a74.8 74.8 0 017.8-3.5 133.4 133.4 0 0125.4-6.7 298 298 0 0126-3c9.3-.8 19-.8 28-2.6a14.8 14.8 0 0010-6.5c2.8-4.7 2.2-10.7 2.2-15.9v-4.6c7.7.2 15.4.7 23.1 1.5a6.3 6.3 0 001.5 0l-.6 17.2-.6 11v4.8l-3.5.3zm14.1-50.4a12.2 12.2 0 00-2-.4q-11.4-1.2-23-1.5l.1-8.5h25.1c0 3.4 0 7-.2 10.4zm54.4-117.9l-.7.6h-.2l-2 1.5-1.8.9c1.3-.7.8.1-.5 0h-3.5a69.7 69.7 0 01-11.8-2c-7.7-1.9-15.2-4.6-21.6-9.4-2.4-1.8-5.6-1.6-8.3-.4a7.8 7.8 0 00-5.4 8.3q2 43.6 1.8 87.4v3.8h-25.2l.4-45.5.5-62.6.1-14.8c0-4.5 1.1-10.5-1.1-14.6l-1-1.4c-6-9-12-18.1-17.5-27.5a482.3 482.3 0 01-54-127.4c-13.7-54.5-13.7-112.8 14.6-162.8A95.4 95.4 0 01902 119a52.8 52.8 0 016-3.9l2.7-1.4 1.1-.6 1.1-.4a46.4 46.4 0 016-1.7l2.3-.4 2.5-.1a42.7 42.7 0 015.6.2l1.8.3a52 52 0 016.2 1.6l2.3.9 2 .9a74 74 0 0123.9 19.1 131.2 131.2 0 0127 53l1.6 7.2a131.7 131.7 0 01.9 5.3V200a129.4 129.4 0 01.7 15.8c0 13.6 0 28.4 4.4 41.4 2.6 7.8 7.9 16.4 17.2 16.6 8.2.1 14.3-5.8 18.8-12a92.3 92.3 0 0012.2-25.4 92.3 92.3 0 0122.4-36.7c8.1-8 19.3-15.5 30.5-14.3 3 .3 6.4 2 9.8 4.2l3.4 2.2 1.6 1.2.4.2.2.2a74.8 74.8 0 016.5 6c.5.6 2.7 3.3 2.5 2.9l2.4 3.5q1.3 2.1 2.4 4.3l.6 1.4.9 2.2a71 71 0 013 11.6c0 .3 0 .7.2 1.1v.7l.4 3.6.2 7.7a129.6 129.6 0 01-1.1 16.4c-2 15.2-6.2 30-11 44.6-12 36.8-27.7 72.9-43.8 108.1a583 583 0 01-44.8 83.6c-5.4 8-10.6 15-18.1 21.7zm21.6 167c-1-.1-1-.1 0 0zm70.5 6.4l-35.6-3.3-18.8-1.7-8.9-.8-4-.3h-.5v-4l-.6-10.8-.8-21.9V642h24.7c.1 10-2.5 24.6 8.6 29.5 4.8 2.2 10.8 2 16 2.5l19.1 1.6c12.4 1 24.7 2.6 36.7 5.8a94 94 0 0117 6.1l2.2 1c-18.3 1.3-36.9-.6-55-2.2z"/>
      <path class="cls-1" d="M1020.8 108.3a123.9 123.9 0 008.7 11.2 4.3 4.3 0 00-.4.5l-3.3 3.8a9 9 0 00-2.5 6 8.5 8.5 0 002.5 5.9 8.4 8.4 0 006 2.5 8.3 8.3 0 005.9-2.5l3.3-3.8.7-1a45.5 45.5 0 0019.8 8.3l3.7.4c0 1.7 0 3.4.2 5 .3 4.4 3.6 8.7 8.4 8.4 4.2-.2 8.7-3.7 8.4-8.4a65 65 0 01-.2-6.7 75.6 75.6 0 0024.4-11.6 13.4 13.4 0 011 1l.1.2c2.4 3.7 7.6 5.6 11.5 3 3.7-2.3 5.6-7.5 3-11.4a26.3 26.3 0 00-2.9-3.8 37 37 0 0010.5-19c1.6-10.4-4.4-19.8-9.6-28.4-2.5-4.1-5-8.9-9-11.8a28.9 28.9 0 00-15.3-4.1c-10.3-.7-20.6 2-30 6a133 133 0 00-28.6 18.2 41.5 41.5 0 00-11 11c-2.2 3.9-3.7 8.1-5.2 12.3a7 7 0 00-.1 8.8zm74-39.5c3.6.1 5.9.1 7.9 3.2 3.6 5.5 8.9 12.3 10.2 18.8 1.2 6-4.2 11.3-8 15.1a55.7 55.7 0 01-36.9 17c-13 0-23-10-30.5-20a39.4 39.4 0 013.7-7.4 35.4 35.4 0 0011.4 12.7c7.9 5.1 18.5 6 26.5.8a23.3 23.3 0 0010.3-23.3 37 37 0 00-6.8-15.8l2.2-.5a42 42 0 0110-.7zm-30.9 9l1.6-1c5.4 3.7 11.6 14.7 4 18.4-6.9 3.3-12.3-4.7-15.3-11 3.1-2.3 6.3-4.5 9.7-6.4zM1085.5 283.4c15.2 6.3 24.7-9.4 29.1-21.3 2.3-6 3.3-11.8 1-18-1.8-5-4.8-9.5-7.4-14.3a7.3 7.3 0 00-7.7-4.1c-6.9-.5-14-.2-19.9 3.9-6.3 4.3-7.9 10.7-8.7 17.9-1.6 12.7 0 30.1 13.6 35.9zm2.7-31.7c.2-2.2 0-6.6 1.8-8.2 1.4-1.3 3.8-1.5 6-1.4 2 3.2 4.3 6.8 4.3 9 0 2.7-4.8 17-8.2 16.9-4.6-.4-4.1-13.4-3.9-16.3zM1055.6 398a1184 1184 0 0019-40c5.6-12.4 11.4-25.6 12.4-39.3s-8-30.4-23.8-29.7c-6.7.3-11.4 9.2-15.3 14l-.5.6a10.3 10.3 0 00-.8 1 410.3 410.3 0 00-38.8 72.7 396.3 396.3 0 00-13.7 38.8c-1.7 5.9-4.8 12.9-4.5 19.1.3 7.8 6.7 11.2 13.4 13.1 13.8 3.9 25.4.3 33.1-12 7.5-12 13.3-25.6 19.5-38.3zm-27.7 17.8c-2.5 5-5 12.2-9.3 15.8-2.8 2.3-7.7 2-11.6.7l.2-.6a541.9 541.9 0 013.4-12q2.4-8.2 5.2-16.2 5.5-15.8 12.3-31.2a401.1 401.1 0 0132.7-58.7l5.7-7c13.4 7-15 61.7-18.5 68.8q-9.8 20.4-20 40.4zM396.4 680.6l-13.5-5q-12.7-4.5-25.4-8.6-24.6-8-49.6-14.4c-14-55.2-18-113.2-18-170q0-22.8 1.2-45.7c23.6-40 40.1-84.4 54.2-128.6a798 798 0 0022.5-82c6.3-30.8-3-61.7-29.5-79.8a82.1 82.1 0 00-78-7.2 64.8 64.8 0 00-31.8 30.5 87.1 87.1 0 00-7.6 31 170.6 170.6 0 00-4.7-21.6 76.3 76.3 0 00-25.2-38.9c-21.8-16.6-50.6-10.6-69.1 8-24.1 24-29.6 58.8-30.3 91.6-.9 41 5.6 82.6 16 122.2 5.3 20 11.6 40.3 19.8 59.7A862.7 862.7 0 01117 608.9a530 530 0 01-9 43.6c-30.1 7.9-60.2 17-89.3 28.4-7.6 3-12.7 9.3-8.9 17.7A30.4 30.4 0 0025 712.1a67.7 67.7 0 0042.9 2.7c15.7-3.3 30.9-8 46.9-9.9 14.8-1.6 33 1.2 39-16.2 5-14.8 6.5-31.4 8.2-46.9 1.8-16.5 3-33 4.4-49.6q4-50.5 6.4-101.2a72.4 72.4 0 009.7 7 53 53 0 0052.3 0 71.6 71.6 0 006.3-3.7c1.5 28.2 4 56.2 6.8 84.3 3 32.6 4.5 65.9 11.2 98 1.5 7.1 2.7 15.7 8.2 21 5.2 5.2 12.6 5.8 19.5 6.2a239.5 239.5 0 0148.5 7.9c14.7 3.8 29.7 7.2 44.8 4 10.7-2.2 33.8-13.5 26-28-2-4.1-5.7-5.6-9.8-7.1zm-5.7 11.4a1.2 1.2 0 00-.1-.2c-.1-.9 1-.2.1.2zm-119.1-48.2h-.6l-1.4-13.3h16.2q1.3 6.7 2.8 13.3zM224 209.5s.5.8 0 0zM131.5 624a49.6 49.6 0 0115.2 3c-.1 2.3-.3 4.5-.6 6.8l-15.8-3.5 1.2-6.3zm25.2-147.1q-2.8 66.6-8.5 133a67.7 67.7 0 00-14-2.5c2-12.3 3.6-24.6 5-37a987 987 0 006-98.6v-15c2.2 3.5 4.4 7 6.7 10.3q2.5 3.6 5.3 7.2a9.2 9.2 0 00-.5 2.6zm-131.2 215v.2l-.2-.1c-.5-.7-.5-.8.2-.1zm107.7-5.1c-5.5.6-11 .6-16.5 1.1a246 246 0 00-33.3 5.7c-11.3 2.8-22.7 6.7-34.5 6.7a40.5 40.5 0 01-14.5-2.4 27.1 27.1 0 01-5.5-2.9l-.1-.1 4.3-1.4 10.9-4q12.2-4.2 24.5-8 24.2-7.7 48.8-14a8.4 8.4 0 005.9-5.9q2-7.4 3.6-14.9l16 3.6a8.8 8.8 0 001.5.2 232 232 0 01-5.8 30.8c-1 3.7-1.4 5-5.3 5.5zm75-198.5l-4.2-.1h-.3l-1.8-.4-3.3-.8-1.6-.6-1.2-.4-.8-.4-1.6-.8-3.4-2-3.2-2.1-.6-.5-1.5-1.2a96 96 0 01-12.6-12.9l-1.7-2-.3-.4-.3-.5-3.1-4.3q-3-4.3-5.8-8.9c-4-6.5-7.7-13.2-11-20a349.6 349.6 0 01-18.7-47.1A474.3 474.3 0 01109.6 276a322 322 0 01-.5-50.4c1-13.3 3-26.2 7.9-39.7l1.1-3c.6-1.2 1.1-2.5 1.8-3.7a68 68 0 014-7.1l1.3-1.9 4.3-5.5a53.1 53.1 0 0112.5-11.4c7.8-5 17.1-7.7 26.3-5.6a39.5 39.5 0 0124.4 19.3c7.3 12 9.9 25.8 12.2 39.5 1.8 10.8 11 22.8 23.3 19.2 6-1.7 8.3-5.7 8.6-11.5l.5-10.5a70.2 70.2 0 013.8-20.8 48.9 48.9 0 0123-27l4-2 .5-.1.4-.2 2.5-.9a66.6 66.6 0 019.2-2.5l2.3-.4h.8c1.6-.2 3.3-.4 5-.4a74.6 74.6 0 019.7.2l2.3.2h.8l5 1a76.3 76.3 0 019.7 3l2.2.8c.4.1-.4-.3.9.3l4.5 2.3a69 69 0 018.2 5.3l.8.6a64.8 64.8 0 018.5 8.5 21 21 0 012.3 3 48.3 48.3 0 017.9 18c3 12.3 1 25.2-2 38.3-3.2 12.9-6.6 25.6-10 38.4A786.6 786.6 0 01292 399.8a396.2 396.2 0 01-16.6 30.8 7.7 7.7 0 00-1 6.1c-3.2 59-.8 118.7 8.6 177H268c-1.8-19-3.7-38-5.4-57.1-2.3-25.5-4.4-51-5.5-76.6 1.8-6.7-7.6-14-14.3-8a56.5 56.5 0 01-34.7 16.3zm162 211.9c-10 .5-19.8-2-29.4-4.5a283.2 283.2 0 00-34-6.9c-5-.6-10-1.2-15.2-1.5-3.2-.3-9.7.7-12.4-1.5s-3-9.7-3.6-12.8c-1-4-1.7-8.2-2.4-12.4h18a9.6 9.6 0 001.4-.1l.3 1.1a8.4 8.4 0 005.9 6q24.5 6.2 48.7 13.8 12 3.8 23.7 7.9l11.7 4.2 4.4 1.4a27.2 27.2 0 01-4.1 2.3 35.8 35.8 0 01-13 3zM312.5 89h18.2a75.3 75.3 0 0011.8 25.2l-2.5 2.3a8.5 8.5 0 000 11.8 8.6 8.6 0 0011.9 0l1.1-1a177 177 0 003.5 3.8c4.8 4.9 10 10.8 16 14.6v11.2c0 4.4 4 8.6 8.4 8.4a8.5 8.5 0 008.4-8.4v-7.8a27.8 27.8 0 0014-6.6c14.8-13.4 10.4-35.5 1.3-50.6a103.4 103.4 0 00-43.8-39.6 8.8 8.8 0 00-3.4-.9 25 25 0 00-20.7 6.1 22 22 0 00-7.4 14.7h-16.8c-10.8 0-10.8 16.8 0 16.8zm73.7 43.7c-3.8.3-7.6-2.8-11-6.3a8.8 8.8 0 00.8-3.2 14.6 14.6 0 0117.6-13.5l1.1.1a26.7 26.7 0 011.6 9.1c-.1 6-3.3 13.3-10.1 13.8zM354.8 68l.4.1a88.4 88.4 0 0130 25 31.2 31.2 0 00-23.4 18.7 84.7 84.7 0 01-9-12.4c-4-7-7-14.9-7-23 0-4.8 3.4-10.3 9-8.4zM544.4 43.8a113.6 113.6 0 0121.5 24c5.9 9 20.5.6 14.5-8.4A129.1 129.1 0 00556.3 32c-8.2-7-20.2 4.8-12 11.8zM1143 453.3a113.6 113.6 0 01-24 21.5c-9 6-.6 20.5 8.4 14.5a129.1 129.1 0 0027.4-24c7-8.3-4.9-20.2-11.9-12zM621.3 55.6V8.1c0-10.8-16.8-10.8-16.8 0v47.5c0 10.9 16.8 10.9 16.8 0zM1194.7 523.5H1147c-10.8 0-10.8 16.8 0 16.8h47.6c10.8 0 10.8-16.8 0-16.8zM655.4 78a270.8 270.8 0 0024.4-37.2c5-9.5-9.4-18-14.5-8.5a245.8 245.8 0 01-21.8 33.8c-2.8 3.6-3.5 8.4 0 11.9 2.9 2.9 9 3.6 11.9 0zM1126.8 577.3a271.4 271.4 0 0037.2 24.4c9.5 5.1 18-9.4 8.5-14.5a247 247 0 01-33.8-21.8c-3.6-2.7-8.4-3.5-12 0-2.8 3-3.5 9.1 0 12zM729.3 41.4q8.7-.3 17.4.2c-.4 8 0 16.2 2.2 23.8a.5.5 0 00-.1.1 41.7 41.7 0 01-4 2.3l-.7.4a15.3 15.3 0 01-2.1.8c-4.2 1.4-7.3 5.8-5.9 10.3 1.4 4.2 6 7.4 10.4 5.9a48 48 0 009.7-4.5c5 6.8 11 12.2 17.8 17.1 4 3.1 9 7.2 14.1 9.4v7.8c0 4.4 3.9 8.6 8.4 8.4a8.5 8.5 0 008.4-8.4v-7.8a8 8 0 00-.2-1.7 43.8 43.8 0 0011.7-17.7 50.7 50.7 0 003-26.5 67.4 67.4 0 00-26.8-41.8c-8-6.2-17.8-12.9-28.3-12-9.4.6-18.2 7.7-19 17.2q-8-.4-16-.1c-10.8.4-10.8 17.2 0 16.8zm73.8 29a12.1 12.1 0 00-1.8.2c-4.9.7-12.5-7.6-13.3-12-.8-4.8 3.1-9.6 7.1-12.8 5.3 7.3 8.3 16 8 24.7zm-27-42a72.2 72.2 0 017.4 5.2c-8.7 7.7-14.9 19.3-11.4 30.7s14.3 20.6 26 22.4c-1.2 1.7-2.5 3.2-3.4 5l-2-1.3-5.2-3.5A71.3 71.3 0 01770.6 72c-10.1-13.3-7.6-31.2-5.6-46.7a5.7 5.7 0 000-1 8.5 8.5 0 011-.2c3.6 0 7.2 2.4 10.2 4.3zM797.6 369.5a8.5 8.5 0 0011.5-3 8.6 8.6 0 00-3-11.5 58.5 58.5 0 00-14.5-6.7 63.5 63.5 0 00-11-32.1 10 10 0 003.2-3 70.6 70.6 0 0114.4-15c3.5-2.8 3-8.9 0-11.8-3.6-3.5-8.3-2.8-12 0a83.7 83.7 0 00-16.4 17.7 70.4 70.4 0 00-27.7-14.4l2.4-4.4c6.8-12.6 13.7-25.1 20-37.9 6-11.7 12.2-23.7 15.7-36.4 9.6-34.7-2.2-73-34.9-90.7a77.3 77.3 0 00-54.8-7.1 75.6 75.6 0 00-15.2 5.5c.5-2.6.9-5.2 1.2-7.9.5-4.5-4.3-8.4-8.4-8.4-5 0-7.9 4-8.4 8.4a158.2 158.2 0 01-4.3 21.3l-.3.3a26.3 26.3 0 00-4.2-5c-6-5.4-13.8-5-21.3-3.3V106c0-10.8-16.8-10.8-16.8 0v23a125.5 125.5 0 00-18.5 7.7 213 213 0 00-3.6-15.7c-2.8-10.4-19-6-16.2 4.4l2.3 9.3-13.2-13.3c-5.2-5.1-10.3-10.5-16.5-14.5a54 54 0 00-29.3-7.9 72.2 72.2 0 00-56.9 30.7c-18.8 26-15.3 60.7-11.6 90.9a452 452 0 0027.9 109.6 490.6 490.6 0 0050.7 97.7v.1c-7.7 60.3-7.5 121.6-6.6 182.3l.8 41a153.6 153.6 0 00-38 7.2 158 158 0 00-22.4 9.2c-6.7 3.4-15.2 7.2-15.1 15.8 0 7.7 7 13.7 13.7 16.2 6 2.2 12.5 2.2 18.9 2l52-2.2c8.5-.4 17.1-.3 25.5-1.2 8.9-.9 13-6.7 13.5-15.3.8-13 1.3-26.1 1.7-39.2q1.6-43.7 2-87.4c.3-25 .3-49.8 0-74.7 13.7 12 30.2 22.3 48 21a52.4 52.4 0 0026-9q-1.3 76.1 1.4 152.2l.8 20.1c.4 7 0 14.7 1.3 21.6 1.6 7.6 7.8 10.4 15 10.9 8.4.6 17 .7 25.5 1l47.2 2c12.2.6 27.7.5 34-12.2 4.8-9.7-2.8-15.8-10.5-20a158.4 158.4 0 00-23-10 153 153 0 00-40.5-8c1.3-58.1 2.2-116.4-1.4-174.4-1-16.4-2.4-32.7-4.5-48.9a10 10 0 00-4-7.1c5.8-19.8 10.7-39.8 18-59.1 1.4-4 3-8 4.7-11.8a268.8 268.8 0 0036.3 27.6c8.6 5.5 19.7 13.6 30 7.7 6.6-3.7 10-12 11.9-19.8a41.3 41.3 0 017.5 4zM641.8 143.2a98.7 98.7 0 016.2 11.6c2.7 6.4 4.1 13.6.7 20-6.2 11.5-22.1 16.3-33.8 19.5-15.1 4.3-31.4 6-44-3.9a43.8 43.8 0 0110.8-23.1c4.7 13 19.5 23.3 32.8 15.7 6.8-3.9 11.8-11.3 14.3-18.7 2.6-7.9.7-15-2.7-22 3.4-.9 6.7-1.6 10-2.2 3.7-.8 3.8-.2 5.7 3zm-31.8 4.6c1.7 3.2 3.9 6.6 3 10.4a18.9 18.9 0 01-5.1 8.9c-2 1.8-3.6 2.5-5.7 1-2.5-2-5.4-6.4-5.3-9.5a8.5 8.5 0 00-.7-3.6 94.9 94.9 0 0113.8-7.2zM556 612h-18l-.1-6.6h15.6a9 9 0 002.7-.4c0 2.3 0 4.6-.2 7zm-22.9 70.6l-41.2 1.8c-2.1 0-19.3 1.6-25.8-.2l2.4-1.2c2.9-1.5 5.8-2.9 8.8-4.2a136.5 136.5 0 0117.1-6 138.5 138.5 0 0136.2-5 8.5 8.5 0 008.4-8.4l-.7-30.6h17.3l-.7 18.2q-.5 14.2-1.2 28.3c0 2-.2 3.8-.3 5.7a5.5 5.5 0 010 .7h-.6l-19.6 1zM679 451.1c4.8 50 4.8 100.4 4.2 150.5h-18.4q-.5-30.7-.5-61.4 0-31.7.8-63.3l1.4-2A128.1 128.1 0 00679 451zm-13.8 167.4h17.6l-.2 14.1h-17l-.4-14.1zm77.7 60c3 1.2 6 2.6 8.8 4.1l3.5 1.5c-4.8 1.4-15.4.7-17.2.6l-34.4-1.5-33.4-1.4-2.4-.2-.4-5-.7-14.7-.5-12.5h16l-.2 10a8.5 8.5 0 008.4 8.4 139 139 0 0136.2 5 135.7 135.7 0 0116.3 5.7zm-65.2-278.9c-4.7 17-9.2 34.1-16.5 50-6.8 14.8-16.6 30.5-32.2 35-22 6.4-42.7-13.3-57.4-28.2a7.6 7.6 0 00-9-1.7 7.5 7.5 0 00-6 7.9c1 40.5.8 81 0 121.5v4.9a8.8 8.8 0 00-3-.5h-15.8c-.3-37.3 0-74.5 2.4-111.7 1-15.4 2.3-30.8 4.2-46.2a7 7 0 000-8.5 467.9 467.9 0 01-74.9-179.7 364.2 364.2 0 01-5.8-52.7 91.8 91.8 0 014.6-39 56.7 56.7 0 0142.6-34.4c8-1.4 18-.3 25.2 3.6 5.5 3 9.2 7 14.3 12 7.3 7 14.3 14.3 21.4 21.6a64.5 64.5 0 00-17.7 37.3 7.6 7.6 0 001.8 8.7c15.4 15.2 35.7 17 56.1 12.8 18.1-3.8 39.6-11.2 50.2-27.4a36 36 0 004-29 9.3 9.3 0 00.7-2.1l3.3-12.5a65.5 65.5 0 0121-11 59.5 59.5 0 0140.5 1.9 57.8 57.8 0 0128.3 25.4c7 12.8 8.5 28.5 5.4 43.3a137 137 0 01-11.8 30.9 859.7 859.7 0 01-18.2 34.9l-11 20.3a89.8 89.8 0 00-15.4.7 12 12 0 00-4.4 1.4 27.7 27.7 0 00-15.8 18.1c-2.8 10.4 1.1 19.6 8 27.4l2.3 2.7a2.4 2.4 0 000 .3 446.3 446.3 0 00-21.4 62zm34.3-73.3c-2.5-2.6-5.8-5.6-7-9.2a10.7 10.7 0 016.5-12.8l.5-.2c13.5-1.3 27.3.3 39.2 7.3a47.5 47.5 0 0118.7 19.8c-7.1-1.7-14.3-2-21.5 1.2a33.6 33.6 0 00-15 13.8 247 247 0 01-11.4-10q-5.1-4.8-10-9.9zm61.4 36.3c-.4 1.4-2.1 7.7-3.6 8-1.1.4-5.7-2.8-7.2-3.7q-7.9-4.8-15.3-10c1-4.5 5.1-8.5 9.2-9.7 6.1-1.8 12.7.8 18.4 3.3a40.6 40.6 0 01-1.5 12.1z"/>
      <path class="cls-1" d="M820.3 618.4v-13.6a7.7 7.7 0 00-.2-1.8c.6 0 1.1-.2 1.7-.3 7-1 14-4.3 20.3-8.5 1 2.4 2 4.7 2.8 7.2 1.5 4 5.8 7.3 10.3 5.8 4.1-1.3 7.5-5.9 6-10.3s-3.7-9-5.3-13.5v-.2c3-2.9 5.9-5.8 8.5-8.6a87.2 87.2 0 007.1-8.6h8.2c4.3 0 8.6-3.8 8.4-8.4a8.6 8.6 0 00-8.4-8.4H877c-.5-7-4.7-13.2-10.3-17.6a60 60 0 00-55.2-9h-.3a7.8 7.8 0 00-6 5.7c-5 16.3-18.4 30-16.8 48.1 1 11.3 7.2 20.1 16.2 24.2a8 8 0 00-1.2 4.2v13.5c0 4.4 4 8.7 8.4 8.4a8.5 8.5 0 008.4-8.4zm34-57.6a110 110 0 01-18 16.4c-5.7 4.2-12.4 9.1-19.9 9.3-6.1.1-10-3.8-11-9.8-.8-4.5.3-9.1 2-13.4a30 30 0 0025.3-.1c10.6-5 13.8-14.3 13.9-24.4a32.4 32.4 0 0110.6 6.6c6 5.4 1.4 10.4-3 15.4zM830 536.4c.4 4 .3 8.4-3.3 11a12.3 12.3 0 01-7.7 1.8 36.6 36.6 0 01-4.4-.8c1.8-3.4 3.5-7 5-10.6a56.3 56.3 0 0110.3-1.4zM290.6 235.6a26.2 26.2 0 0028.6-15 27.8 27.8 0 00-7-33.2 7.6 7.6 0 00-4.6-3c-14.5-3.4-27.2 5.4-32.5 18.7a30 30 0 00-1.1 19.4c2.1 7.1 9.4 11.6 16.6 13.1zm11-35.2c4.3 4.5 5 9.7 1.5 14.7a9.5 9.5 0 01-6.2 4.2 10.6 10.6 0 01-6.7-1.8c-1.2-7.5 3-17.8 11.4-17.1zM268 394a270 270 0 0015.6-28.2 232.5 232.5 0 0022-60.6c2-11.5 3-24-.2-35.3-2-7.1-6.1-14.7-13.9-16.5-14.5-3.5-25.9 14-31.5 24.8-17.2 33.1-39.2 66-42.4 104.2-1 12.1-.9 28 10.7 35.3 7 4.5 15.1 2.5 21.4-2.2a80.4 80.4 0 0018.2-21.4zm19.5-124c-.2 0-.4.1 0 0zm.8-.3c.2 0 .2 0 0 0zm-1 0l-.2-.1c0-.2 0-.1.2 0zm-.2-.1c-.5-.4-.1-.9 0 0zm-46.4 131.7l-.3.3a.4.4 0 00-.2.1 75 75 0 01-2.7 1.6l-.3.1-.4-.4-1.1-1.7c-1.2-2-1-1.1-1.3-3.2a70 70 0 01-.2-12.4c1.8-36 24.2-68 40.3-99a58.2 58.2 0 018.3-12.6 23.3 23.3 0 014-3.6l.7-.5 1 2a29.7 29.7 0 012 9.5 87 87 0 01-2.5 26.6 185.4 185.4 0 01-9 27.2l-.8 2-.1.3-.2.4q-1 2.6-2.3 5.3a411.1 411.1 0 01-18.3 36c-2.1 3.6-4.4 7.2-6.8 10.7a57.5 57.5 0 01-6.4 8l-3.4 3.3zM544.3 233c6.3-13.1 5.2-31.4-9.6-38.4a11.3 11.3 0 00-1.3-.5 11.6 11.6 0 00-4.3-1.4c-15.2-2-31.7 1.2-35.9 18.4-1.7 7-3 16.3-1.4 23.4 1.6 7.8 8.7 11.3 15.6 13.5s15 3.2 21.7.7c7-2.7 12-9 15.2-15.6zm-15.3-6.8c-1.3 2.4-3 5.7-5.8 6.8-3.3 1.4-8.1-.1-11.3-1.1a21.8 21.8 0 01-3.6-1.4 7 7 0 00-.1-1l.1-4c.2-3.7.2-8 1.5-11.5 2.4-6.4 10.4-5.7 16.4-4.9 7 3.3 5.8 11.2 2.8 17zM582.3 279a8.7 8.7 0 00-2.1-2.3 10 10 0 00-.9-.6c-7.6-5.2-16-10-25.5-9.4a22.6 22.6 0 00-19.8 14c-7.3 17.5 2.7 37.7 10.7 53.1a193.9 193.9 0 0015.1 24.6c5 6.8 11 16 20.4 16.1 20.7.4 21.3-31.9 19.7-46a115.3 115.3 0 00-17.6-49.4zm.5 70.2a31.6 31.6 0 01-1.9 6.4l-.6 1.2a84 84 0 01-6-7 156.5 156.5 0 01-24.2-45.5c-1.4-5-4.2-15.8 1.2-19.8 5-3.7 12.6 1.2 17.5 4.6a99 99 0 0114 36.6c1.2 7.6 1.6 16 0 23.5zM67.2 565.5c-13.5 4.2-27.6 7.6-35.5 20.5-5.7 9.3 8.9 17.7 14.5 8.5 5.2-8.5 16.8-10 25.5-12.8 10.3-3.3 5.9-19.5-4.5-16.2zM61.3 544.9c4.5.6 9-1.1 10.3-5.9 1-4-1.3-9.7-5.9-10.3a302 302 0 00-55.2-2.8c-10.8.5-10.8 17.3 0 16.8a279 279 0 0150.8 2.2zM71 497.6l-18.1-10.2c-9.5-5.3-18 9.2-8.5 14.5L62.6 512c9.4 5.3 17.9-9.2 8.4-14.5zM440.1 481.1l-5.3-3.9.6-1c7.7-15.9 1.6-33-13.2-42.3a52 52 0 00-20.4-6.8 7.4 7.4 0 00-3.8-.5l-2.3-.2a40.6 40.6 0 00-20.7 3.4 9 9 0 00-2.6 1.1c-6.5 4-13.1 8.7-16.4 16a23.5 23.5 0 00-1.1 16 7.8 7.8 0 00-.7.6l-5 3.9c-1.6 1.2-2.5 4-2.5 6a8.6 8.6 0 002.5 5.9 8.4 8.4 0 006 2.4l2.2-.3a8.3 8.3 0 003.7-2.1l1.6-1.3a97.7 97.7 0 0011.7 13.3 47.4 47.4 0 009.1 6.9 8.2 8.2 0 00-1 3.7v5a8.7 8.7 0 002.5 6 8.4 8.4 0 0014.4-6v-4.2c9.3 0 18.4-5 25.4-12l6.8 5c3.6 2.6 9.6.7 11.5-3 2.3-4.4.8-8.8-3-11.6zM395.4 457v-.4a7.7 7.7 0 01.3-2.3 25 25 0 011.6-5.1c.7-1.5 2-4.6 3.4-5.7a38.4 38.4 0 015 1.3 10.7 10.7 0 00-.1 1.4c-.1 3.7.2 9.4-2.8 12.3-2 2-5.7.5-7.4-1.5zm2.3 28.8c-6.7-1-11.8-6.4-16-11.3-4-4.5-10.7-11.1-11-17.5-.3-3.7 2.6-6.5 5.8-8.7a9 9 0 001.7-1 22 22 0 012-1.1c-3 8.9-2.3 18.5 5 24 7.5 5.7 17.5 8.6 25.9 3 6-4 8.8-9.8 10.1-16.3a12.3 12.3 0 011.1 5.2c-.1 6.4-5 12-9.3 16.3-4 4-9.2 8.3-15.3 7.4zM8.1 130.6a134 134 0 0016.9-.9 11.4 11.4 0 001.3-.2c4.9 14.2 21.7 21.7 37 22 19.7.4 35-12.8 44.7-28.9a49.6 49.6 0 00-1.7-54 10.5 10.5 0 001-2.1l4.5-11.7c1.6-4-1.8-9.4-6-10.3-4.8-1-8.5 1.5-10.3 5.9l-2.9 7.5a27.3 27.3 0 00-12-1.7c-9.4.7-16.2 5.2-22 11.8a8.5 8.5 0 00-1 1l-1.4 1.5a9.6 9.6 0 00-1-1.1c-5-5.2-10.9-9.1-16.3-13.8-3.4-2.9-8.5-3.3-11.9 0-3 3-3.4 9 0 12C32.4 72 38.4 76 43.3 81.2a9 9 0 001.7 1.3l-8.5 9.6a45.3 45.3 0 00-10.6 20.6 4.4 4.4 0 00-.8 0 134 134 0 01-17 .9c-10.8 0-10.8 16.7 0 16.9zm71.9-1a27 27 0 01-16.7 5.1 10.8 10.8 0 00-.3-1.2 22.4 22.4 0 00-.7-2.3v-1.5c.3-2.4.4-2.4 2-4.8a24.5 24.5 0 014-4l2-1.3 3-1.6c3.6-1.6 7.8-2.1 10.2-1.6 3 .6 4.3 1.6 5.3 4.8a49.1 49.1 0 01-8.8 8.4zm-30.1-27.3l19.2-21a13.6 13.6 0 001.4-1.6c3.8-5 9.6-8.4 16.1-6.3s10 11 11.2 17a31.3 31.3 0 01-.5 14.6c-16.9-13.7-51.1 1.3-52 24a10 10 0 01-3.5-5.8c-1.4-8 3.1-15.3 8-20.9z"/>
    </g>
  </g>
</svg>
